<svg xmlns="http://www.w3.org/2000/svg" width="16" height="16" viewBox="0 0 139.447 139.421">
  <g id="sdg" transform="translate(-5.56 -5.866)">
    <path id="Pfad_10" data-name="Pfad 10" d="M41.379,55.666a39.446,39.446,0,0,1,6.252-8.037l-20.5-22.473A70.255,70.255,0,0,0,14.122,42.088Z" fill="#000"/>
    <path id="Pfad_11" data-name="Pfad 11" d="M91.619,39.866a39.263,39.263,0,0,1,8.6,5.382l20.548-22.434a69.972,69.972,0,0,0-18.216-11.367Z" fill="#000"/>
    <path id="Pfad_12" data-name="Pfad 12" d="M138.679,46.566,111.441,60.144a38.936,38.936,0,0,1,2.726,9.626l30.3-2.859a69.172,69.172,0,0,0-5.788-20.344" fill="#000"/>
    <path id="Pfad_13" data-name="Pfad 13" d="M109.489,56.266,136.72,42.688a70,70,0,0,0-12.726-16.894L103.446,48.222a39.61,39.61,0,0,1,6.042,8.044" fill="#000"/>
    <path id="Pfad_14" data-name="Pfad 14" d="M35.969,75.566c0-.61.019-1.226.051-1.836L5.712,71.017c-.1,1.506-.152,3.018-.152,4.549A69.822,69.822,0,0,0,7.619,92.422l29.271-8.4a39.46,39.46,0,0,1-.921-8.457" fill="#000"/>
    <path id="Pfad_15" data-name="Pfad 15" d="M105.679,100.466a39.714,39.714,0,0,1-7.389,6.951l16,25.91a70.172,70.172,0,0,0,15.668-14.55Z" fill="#000"/>
    <path id="Pfad_16" data-name="Pfad 16" d="M114.6,75.566a38.577,38.577,0,0,1-.9,8.361l29.271,8.406a69.439,69.439,0,0,0,2.04-16.767c0-1.436-.044-2.859-.133-4.282l-30.3,2.865c.013.477.025.94.025,1.417" fill="#000"/>
    <path id="Pfad_17" data-name="Pfad 17" d="M45.379,101.066l-24.22,18.413a70.142,70.142,0,0,0,15.814,14.327l16-25.878a39.973,39.973,0,0,1-7.592-6.862" fill="#000"/>
    <path id="Pfad_18" data-name="Pfad 18" d="M36.459,69.366a38.779,38.779,0,0,1,2.9-9.759L12.137,46.042a68.968,68.968,0,0,0-6.01,20.6Z" fill="#000"/>
    <path id="Pfad_19" data-name="Pfad 19" d="M110.569,135.666,94.59,109.794a39.212,39.212,0,0,1-9.321,3.787L90.9,143.513a69.228,69.228,0,0,0,19.664-7.847" fill="#000"/>
    <path id="Pfad_20" data-name="Pfad 20" d="M112.529,88.166a39.485,39.485,0,0,1-4.251,8.762l24.3,18.324a69.221,69.221,0,0,0,9.194-18.68Z" fill="#000"/>
    <path id="Pfad_21" data-name="Pfad 21" d="M80.949,114.466a39.659,39.659,0,0,1-5.667.413,38.916,38.916,0,0,1-4.581-.273l-5.636,29.932a70.135,70.135,0,0,0,21.52-.165Z" fill="#000"/>
    <path id="Pfad_22" data-name="Pfad 22" d="M77.8,36.366a38.747,38.747,0,0,1,9.727,1.881L98.461,9.84A69.192,69.192,0,0,0,77.8,5.926Z" fill="#000"/>
    <path id="Pfad_23" data-name="Pfad 23" d="M66.379,113.866a39.233,39.233,0,0,1-9.651-3.647L40.716,136.11a69.58,69.58,0,0,0,20.033,7.656Z" fill="#000"/>
    <path id="Pfad_24" data-name="Pfad 24" d="M63.469,38.066A38.882,38.882,0,0,1,73.4,36.3V5.866A69.244,69.244,0,0,0,52.464,9.678Z" fill="#000"/>
    <path id="Pfad_25" data-name="Pfad 25" d="M42.719,97.566a39.008,39.008,0,0,1-4.638-9.3L8.829,96.664a69.6,69.6,0,0,0,9.664,19.315Z" fill="#000"/>
    <path id="Pfad_26" data-name="Pfad 26" d="M50.929,44.766a39.707,39.707,0,0,1,8.431-5.1l-11-28.375A69.693,69.693,0,0,0,30.419,22.281Z" fill="#000"/>
  </g>
</svg>
